HIERARCHY
ROOT Hips
{
    OFFSET   0.000000   0.000000   0.000000
    CHANNELS 6 Xposition Yposition Zposition Zrotation Xrotation Yrotation
    JOINT Chest
    {
        OFFSET   0.000000   8.007230   0.000000
        CHANNELS 3 Zrotation Xrotation Yrotation
        JOINT Chest2
        {
            OFFSET   0.000000  22.077100   0.000000
            CHANNELS 3 Zrotation Xrotation Yrotation
            JOINT Neck
            {
                OFFSET   0.000000  23.255100   0.000000
                CHANNELS 3 Zrotation Xrotation Yrotation
                JOINT Head
                {
                    OFFSET   0.000000  14.370100   1.956600
                    CHANNELS 3 Zrotation Xrotation Yrotation
                    End Site
                    {
                        OFFSET   0.000000  19.566000   0.000000
                    }
                }
            }
            JOINT LeftCollar
            {
                OFFSET   3.911900  19.017000  -0.467063
                CHANNELS 3 Zrotation Xrotation Yrotation
                JOINT LeftShoulder
                {
                    OFFSET  10.383700   0.000000   0.000000
                    CHANNELS 3 Zrotation Xrotation Yrotation
                    JOINT LeftElbow
                    {
                        OFFSET  26.662100   0.001193   0.000980
                        CHANNELS 3 Zrotation Xrotation Yrotation
                        JOINT LeftWrist
                        {
                            OFFSET  28.869000  -0.000059  -0.000082
                            CHANNELS 3 Zrotation Xrotation Yrotation
                            JOINT LeftFinger0
                            {
                                OFFSET   2.044650  -2.323450   3.252850
                                CHANNELS 3 Zrotation Xrotation Yrotation
                                JOINT LeftFinger01
                                {
                                    OFFSET   3.088130   0.000000   0.000000
                                    CHANNELS 3 Zrotation Xrotation Yrotation
                                    JOINT LeftFinger02
                                    {
                                        OFFSET   2.639460   0.000000   0.000000
                                        CHANNELS 3 Zrotation Xrotation Yrotation
                                        End Site
                                        {
                                            OFFSET   2.582190   0.000000   0.000000
                                        }
                                    }
                                }
                            }
                            JOINT LeftFinger1
                            {
                                OFFSET   8.364480   0.000000   3.252850
                                CHANNELS 3 Zrotation Xrotation Yrotation
                                JOINT LeftFinger11
                                {
                                    OFFSET   4.646930   0.000000   0.000000
                                    CHANNELS 3 Zrotation Xrotation Yrotation
                                    JOINT LeftFinger12
                                    {
                                        OFFSET   2.323470   0.000000   0.000000
                                        CHANNELS 3 Zrotation Xrotation Yrotation
                                        End Site
                                        {
                                            OFFSET   2.273050   0.000000   0.000000
                                        }
                                    }
                                }
                            }
                            JOINT LeftFinger2
                            {
                                OFFSET   8.364490   0.000016   1.078090
                                CHANNELS 3 Zrotation Xrotation Yrotation
                                JOINT LeftFinger21
                                {
                                    OFFSET   5.111610   0.000000   0.000000
                                    CHANNELS 3 Zrotation Xrotation Yrotation
                                    JOINT LeftFinger22
                                    {
                                        OFFSET   2.788150   0.000016   0.000000
                                        CHANNELS 3 Zrotation Xrotation Yrotation
                                        End Site
                                        {
                                            OFFSET   2.727660   0.000000   0.000000
                                        }
                                    }
                                }
                            }
                            JOINT LeftFinger3
                            {
                                OFFSET   7.899780   0.000015  -1.078090
                                CHANNELS 3 Zrotation Xrotation Yrotation
                                JOINT LeftFinger31
                                {
                                    OFFSET   4.646930   0.000000   0.000000
                                    CHANNELS 3 Zrotation Xrotation Yrotation
                                    JOINT LeftFinger32
                                    {
                                        OFFSET   2.323470   0.000000   0.000000
                                        CHANNELS 3 Zrotation Xrotation Yrotation
                                        End Site
                                        {
                                            OFFSET   2.273050   0.000000   0.000000
                                        }
                                    }
                                }
                            }
                            JOINT LeftFinger4
                            {
                                OFFSET   7.435090   0.000000  -3.252850
                                CHANNELS 3 Zrotation Xrotation Yrotation
                                JOINT LeftFinger41
                                {
                                    OFFSET   3.717550   0.000000   0.000000
                                    CHANNELS 3 Zrotation Xrotation Yrotation
                                    JOINT LeftFinger42
                                    {
                                        OFFSET   1.858770   0.000000   0.000000
                                        CHANNELS 3 Zrotation Xrotation Yrotation
                                        End Site
                                        {
                                            OFFSET   1.818440   0.000000   0.000000
                                        }
                                    }
                                }
                            }
                        }
                    }
                }
            }
            JOINT RightCollar
            {
                OFFSET  -3.911910  19.017000  -0.467062
                CHANNELS 3 Zrotation Xrotation Yrotation
                JOINT RightShoulder
                {
                    OFFSET -10.383700   0.000014   0.000000
                    CHANNELS 3 Zrotation Xrotation Yrotation
                    JOINT RightElbow
                    {
                        OFFSET -26.662100   0.001225   0.001091
                        CHANNELS 3 Zrotation Xrotation Yrotation
                        JOINT RightWrist
                        {
                            OFFSET -28.869000  -0.000020  -0.000085
                            CHANNELS 3 Zrotation Xrotation Yrotation
                            JOINT RightFinger0
                            {
                                OFFSET  -2.044650  -2.323490   3.252850
                                CHANNELS 3 Zrotation Xrotation Yrotation
                                JOINT RightFinger01
                                {
                                    OFFSET  -3.088130   0.000000   0.000000
                                    CHANNELS 3 Zrotation Xrotation Yrotation
                                    JOINT RightFinger02
                                    {
                                        OFFSET  -2.639460   0.000000   0.000000
                                        CHANNELS 3 Zrotation Xrotation Yrotation
                                        End Site
                                        {
                                            OFFSET  -2.582190   0.000000   0.000000
                                        }
                                    }
                                }
                            }
                            JOINT RightFinger1
                            {
                                OFFSET  -8.364480   0.000000   3.252850
                                CHANNELS 3 Zrotation Xrotation Yrotation
                                JOINT RightFinger11
                                {
                                    OFFSET  -4.646930   0.000000   0.000000
                                    CHANNELS 3 Zrotation Xrotation Yrotation
                                    JOINT RightFinger12
                                    {
                                        OFFSET  -2.323470   0.000000   0.000000
                                        CHANNELS 3 Zrotation Xrotation Yrotation
                                        End Site
                                        {
                                            OFFSET  -2.273050   0.000000   0.000000
                                        }
                                    }
                                }
                            }
                            JOINT RightFinger2
                            {
                                OFFSET  -8.364480   0.000000   1.078090
                                CHANNELS 3 Zrotation Xrotation Yrotation
                                JOINT RightFinger21
                                {
                                    OFFSET  -5.111620   0.000000   0.000000
                                    CHANNELS 3 Zrotation Xrotation Yrotation
                                    JOINT RightFinger22
                                    {
                                        OFFSET  -2.788160   0.000000   0.000000
                                        CHANNELS 3 Zrotation Xrotation Yrotation
                                        End Site
                                        {
                                            OFFSET  -2.727660   0.000000   0.000000
                                        }
                                    }
                                }
                            }
                            JOINT RightFinger3
                            {
                                OFFSET  -7.899780   0.000000  -1.078090
                                CHANNELS 3 Zrotation Xrotation Yrotation
                                JOINT RightFinger31
                                {
                                    OFFSET  -4.646930   0.000000   0.000000
                                    CHANNELS 3 Zrotation Xrotation Yrotation
                                    JOINT RightFinger32
                                    {
                                        OFFSET  -2.323470   0.000000   0.000000
                                        CHANNELS 3 Zrotation Xrotation Yrotation
                                        End Site
                                        {
                                            OFFSET  -2.273050   0.000000   0.000000
                                        }
                                    }
                                }
                            }
                            JOINT RightFinger4
                            {
                                OFFSET  -7.435090   0.000000  -3.252850
                                CHANNELS 3 Zrotation Xrotation Yrotation
                                JOINT RightFinger41
                                {
                                    OFFSET  -3.717550   0.000000   0.000000
                                    CHANNELS 3 Zrotation Xrotation Yrotation
                                    JOINT RightFinger42
                                    {
                                        OFFSET  -1.858760   0.000000   0.000000
                                        CHANNELS 3 Zrotation Xrotation Yrotation
                                        End Site
                                        {
                                            OFFSET  -1.818440   0.000000   0.000000
                                        }
                                    }
                                }
                            }
                        }
                    }
                }
            }
        }
    }
    JOINT LeftHip
    {
        OFFSET   9.783030   0.000000   0.000000
        CHANNELS 3 Zrotation Xrotation Yrotation
        JOINT LeftKnee
        {
            OFFSET   0.000063 -41.789100   0.000608
            CHANNELS 3 Zrotation Xrotation Yrotation
            JOINT LeftAnkle
            {
                OFFSET   0.000048 -41.133200  -0.000184
                CHANNELS 3 Zrotation Xrotation Yrotation
                JOINT LeftToe
                {
                    OFFSET   0.000000  -6.358960  14.674500
                    CHANNELS 3 Zrotation Xrotation Yrotation
                    End Site
                    {
                        OFFSET   0.000000   0.000000   3.913200
                    }
                }
            }
        }
    }
    JOINT RightHip
    {
        OFFSET  -9.783030   0.000000   0.000000
        CHANNELS 3 Zrotation Xrotation Yrotation
        JOINT RightKnee
        {
            OFFSET   0.000071 -41.789100   0.001239
            CHANNELS 3 Zrotation Xrotation Yrotation
            JOINT RightAnkle
            {
                OFFSET   0.000037 -41.133200  -0.000166
                CHANNELS 3 Zrotation Xrotation Yrotation
                JOINT RightToe
                {
                    OFFSET   0.000000  -6.358960  14.674500
                    CHANNELS 3 Zrotation Xrotation Yrotation
                    End Site
                    {
                        OFFSET   0.000000   0.000000   3.913200
                    }
                }
            }
        }
    }
}
MOTION
Frames: 5
Frame Time:   0.016667
  0.884676  89.534900  -0.932695  -2.635060  -2.540600   1.429090   1.621120   2.992700  -1.031590   3.302710   5.954450  -2.152050   0.361030   0.223908  -0.006731   0.593159   0.454083   8.036400  -6.885640   2.907390   0.541855 -70.489500  17.598000  -7.940750  -2.756550  -6.103410 -12.856200  10.293100  -9.559110   9.982620  42.841400  29.574700 -63.992500 -21.445100   0.013821   0.009551  -5.717760   0.002684   0.005497 -35.020500   6.835240  -9.639250 -29.125200   0.006343  -0.003311 -20.387600   0.004160   0.010748 -28.738500   1.318090  -2.402340 -40.693900  -0.000939   0.012006 -27.102200  -0.000480   0.003433 -28.381100  -3.719160   6.844120 -37.558700  -0.001936   0.003515 -25.014200  -0.001398   0.000208 -32.609600  -4.213920   6.552000 -49.276300   0.000085  -0.002985 -32.818100   0.004981   0.008706   5.052270  -0.214055  10.703000  72.613100   9.108280   1.425170  -0.407859  -4.288500  12.287800 -17.066500 -17.172500  -0.105799 -49.945900  37.638400  76.345200  15.996700  -0.008464  -0.000980   2.998340   0.000246  -0.002476  31.549300   6.712910  10.777600  26.331900  -0.007488  -0.004429  18.432300  -0.005859  -0.003488  27.707100   4.306760   8.137400  32.085600  -0.004053  -0.003325  21.369000  -0.003267  -0.001208  27.782900   1.367580   2.593320  30.860700  -0.002990  -0.003314  20.553300  -0.002648  -0.001319  32.776300   0.725993   1.126530  49.175200  -0.003168  -0.000236  32.750700  -0.001868   0.001007   3.465740   5.645200   4.861030   0.929425   0.088712  11.836400  -2.255960  -2.156350   3.954660  -0.000000   0.000000   0.000000   0.381155   1.712500  -4.225170   1.266500   3.980580  -9.432900  -1.626530  -2.448540  -3.815210   0.000000   0.000000  -0.000000
  0.884615  89.534900  -0.926733  -2.638310  -2.561470   1.429120   1.624690   3.006700  -1.034470   3.310330   5.982290  -2.158440   0.349465   0.238272  -0.006744   0.574146   0.483184   8.069480  -6.892380   2.899730   0.541934 -70.481600  17.581700  -7.951720  -2.748950  -6.038380 -12.919300  10.308600  -9.589320   9.969900  42.822500  29.549200 -63.981500 -21.441100   0.013820   0.009550  -5.718070   0.002682   0.005497 -35.028600   6.839400  -9.642090 -29.132300   0.006341  -0.003311 -20.392600   0.004159   0.010749 -28.738400   1.319580  -2.405030 -40.692700  -0.000941   0.012011 -27.101400  -0.000481   0.003430 -28.382200  -3.715750   6.838260 -37.535700  -0.001937   0.003516 -24.998900  -0.001398   0.000206 -32.619900  -4.211400   6.545550 -49.291300   0.000084  -0.002986 -32.828100   0.004979   0.008703   5.070530  -0.252894  10.742700  72.617200   9.124020   1.396670  -0.476427  -4.320460  12.385500 -17.016100 -17.147900   0.056636 -49.985700  37.664700  76.375500  16.018400  -0.008464  -0.000972   3.009170   0.000248  -0.002474  31.392300   6.698610  10.823100  26.204400  -0.007490  -0.004431  18.343100  -0.005859  -0.003485  27.667800   4.283070   8.106610  31.818000  -0.004053  -0.003325  21.190800  -0.003271  -0.001207  27.744300   1.348570   2.560450  30.639700  -0.002992  -0.003317  20.406100  -0.002649  -0.001319  32.675500   0.746453   1.163030  49.024800  -0.003169  -0.000237  32.650400  -0.001872   0.001007   3.469560   5.664510   4.861170   0.929681   0.102044  11.836800  -2.257320  -2.164390   3.954630  -0.000000   0.000000   0.000000   0.385198   1.760860  -4.225410   1.266670   3.970540  -9.423290  -1.627280  -2.453160  -3.825060  -0.000000   0.000000  -0.000000
  0.884554  89.534900  -0.917048  -2.643790  -2.599360   1.429160   1.631790   3.032440  -1.039870   3.325440   6.033450  -2.170460   0.330044   0.262185  -0.006757   0.542203   0.531640   8.124800  -6.906740   2.884030   0.542046 -70.469900  17.548600  -7.961950  -2.738420  -5.932290 -13.042100  10.325200  -9.636240   9.946330  42.804800  29.515000 -63.977600 -21.434600   0.013818   0.009548  -5.718380   0.002676   0.005497 -35.043200   6.847850  -9.648580 -29.145100   0.006332  -0.003314 -20.401600   0.004154   0.010751 -28.738000   1.323470  -2.412090 -40.689100  -0.000946   0.012024 -27.098900  -0.000483   0.003423 -28.384300  -3.708100   6.824850 -37.497400  -0.001942   0.003519 -24.973300  -0.001402   0.000201 -32.638100  -4.205050   6.531280 -49.317200   0.000082  -0.002986 -32.845300   0.004975   0.008692   5.093450  -0.315208  10.805300  72.621100   9.152980   1.368230  -0.594139  -4.377050  12.547400 -16.941500 -17.074000   0.303036 -50.057700  37.712400  76.430800  16.040000  -0.008462  -0.000960   3.019990   0.000251  -0.002467  31.151800   6.683250  10.897200  26.010100  -0.007493  -0.004434  18.207100  -0.005860  -0.003481  27.608400   4.249430   8.064120  31.419300  -0.004055  -0.003325  20.925300  -0.003276  -0.001207  27.687100   1.323030   2.519360  30.315700  -0.003000  -0.003325  20.190300  -0.002655  -0.001319  32.524800   0.776989   1.217700  48.799700  -0.003173  -0.000241  32.500500  -0.001881   0.001009   3.476340   5.697430   4.861420   0.929648   0.128058  11.839800  -2.259900  -2.180690   3.954290  -0.000000   0.000000  -0.000000   0.392028   1.809210  -4.225660   1.266670   3.960530  -9.411010  -1.628350  -2.462360  -3.835100  -0.000000   0.000000   0.000000
  0.884556  89.534900  -0.910028  -2.648610  -2.636180   1.425800   1.640790   3.058320  -1.046030   3.344400   6.084840  -2.184090   0.311862   0.280940  -0.006752   0.511199   0.569685   8.171570  -6.925990   2.864580   0.542095 -70.465000  17.509500  -7.952920  -2.734510  -5.850580 -13.178500  10.317900  -9.672590   9.924180  42.789900  29.491900 -64.000500 -21.432100   0.013821   0.009538  -5.717330   0.002664   0.005496 -35.061200   6.860060  -9.658020 -29.161000   0.006318  -0.003321 -20.412700   0.004144   0.010757 -28.737500   1.329660  -2.423380 -40.686100  -0.000951   0.012043 -27.096900  -0.000487   0.003414 -28.385200  -3.697950   6.806500 -37.473700  -0.001950   0.003523 -24.957500  -0.001408   0.000191 -32.658000  -4.195920   6.512220 -49.346000   0.000079  -0.002983 -32.864400   0.004966   0.008673   5.097110  -0.360875  10.848200  72.623300   9.184990   1.382760  -0.690523  -4.444290  12.671900 -17.012900 -16.939000   0.453227 -50.139100  37.764400  76.486600  16.026200  -0.008450  -0.000954   3.013080   0.000248  -0.002458  30.976900   6.681440  10.965600  25.870300  -0.007495  -0.004437  18.109200  -0.005862  -0.003479  27.571900   4.236740   8.052820  31.191100  -0.004068  -0.003332  20.773300  -0.003279  -0.001209  27.651900   1.317810   2.513870  30.125000  -0.003017  -0.003337  20.063300  -0.002669  -0.001324  32.425700   0.796837   1.253850  48.651700  -0.003192  -0.000254  32.402000  -0.001893   0.001015   3.483050   5.723740   4.861650   0.928662   0.159041  11.847800  -2.263000  -2.200910   3.949700  -0.000000   0.000000   0.000000   0.400488   1.777480  -4.224430   1.259890   4.029170  -9.409040  -1.629000  -2.473270  -3.835330   0.000000   0.000000  -0.000000
  0.884572  89.534900  -0.902914  -2.653480  -2.676720   1.417420   1.649380   3.086580  -1.051860   3.362580   6.141010  -2.197150   0.298182   0.300295  -0.006746   0.489928   0.608962   8.214240  -6.946610   2.843130   0.542109 -70.458900  17.463700  -7.937680  -2.733550  -5.774850 -13.334000  10.301400  -9.692730   9.895870  42.773800  29.477500 -64.016400 -21.424600   0.013826   0.009531  -5.712290   0.002651   0.005494 -35.071900   6.869620  -9.668390 -29.171100   0.006297  -0.003330 -20.419700   0.004131   0.010764 -28.736900   1.337250  -2.437270 -40.674600  -0.000959   0.012068 -27.089300  -0.000492   0.003402 -28.384100  -3.685250   6.783710 -37.436100  -0.001960   0.003528 -24.932400  -0.001417   0.000179 -32.671900  -4.183190   6.489390 -49.363800   0.000069  -0.002979 -32.876300   0.004960   0.008650   5.094760  -0.401935  10.887200  72.631600   9.214200   1.411550  -0.801596  -4.485650  12.801300 -17.203000 -16.779200   0.565890 -50.203700  37.809300  76.544600  16.012400  -0.008434  -0.000948   3.006170   0.000243  -0.002443  30.885700   6.680260  11.005400  25.797300  -0.007496  -0.004439  18.058100  -0.005865  -0.003476  27.546700   4.227280   8.043670  31.037500  -0.004084  -0.003346  20.671000  -0.003284  -0.001213  27.635500   1.314320   2.508390  30.037200  -0.003038  -0.003353  20.004800  -0.002687  -0.001333  32.376600   0.806608   1.271840  48.578300  -0.003220  -0.000273  32.353200  -0.001907   0.001022   3.489400   5.754130   4.861940   0.927082   0.190163  11.859400  -2.266130  -2.222560   3.942650  -0.000000   0.000000   0.000000   0.410856   1.745750  -4.220690   1.249650   4.126490  -9.409400  -1.629700  -2.485140  -3.835390  -0.000000   0.000000   0.000000
